#!OML:ASF F:\VICON\USERDATA\INSTALL\rory3\rory3.ASF
:FULLY-SPECIFIED
:DEGREES
3217
root 0.204708 18.7651 1.69198 4.34836 14.6143 -10.0212
lowerback 7.50953 5.48667 1.44929
upperback 1.85928 7.31182 -4.26084
thorax -1.51237 3.66864 -5.82612
lowerneck -11.9616 -8.62245 -9.02966
upperneck 7.70524 -11.8269 14.5889
head 5.73594 -5.19243 4.95965
rclavicle -9.54166e-015 -4.77083e-014
rhumerus 61.8166 35.3168 -70.3231
rradius 51.0865
rwrist 32.1414
rhand -62.6641 366.902
rfingers 7.12502
rthumb -34.6842 -19.727
lclavicle -9.54166e-015 -4.77083e-014
lhumerus -9.4577 -11.3264 80.738
lradius 58.1416
lwrist -7.15604
lhand -34.2365 25.614
lfingers 7.12502
lthumb -7.40781 55.4643
rfemur -9.08653 14.3515 18.119
rtibia 19.7883
rfoot -9.5187 -40.1719
rtoes 8.39462
lfemur -20.8666 -9.88672 1.11542
ltibia 27.5527
lfoot -11.0027 7.49444
ltoes -20.0034
3218
root 0.204169 18.7644 1.68074 4.34049 14.523 -9.99798
lowerback 7.51311 5.51273 1.31631
upperback 1.86171 7.33459 -4.33987
thorax -1.51549 3.68039 -5.83692
lowerneck -11.8337 -8.64301 -9.04344
upperneck 7.90249 -11.893 14.6475
head 5.78833 -5.22112 4.97616
rclavicle -7.31528e-014 7.95139e-015
rhumerus 63.171 36.0511 -67.6603
rradius 51.0161
rwrist 33.5456
rhand -63.0248 365.934
rfingers 7.12502
rthumb -35.0264 -20.6159
lclavicle -7.31528e-014 7.95139e-015
lhumerus -9.35122 -11.3795 80.6672
lradius 58.0582
lwrist -7.22585
lhand -34.3134 25.7756
lfingers 7.12502
lthumb -7.48209 55.6232
rfemur -9.24845 14.1885 18.0491
rtibia 19.9679
rfoot -8.69633 -39.951
rtoes 7.30707
lfemur -20.8963 -9.83351 1.07952
ltibia 27.6406
lfoot -11.0258 7.49298
ltoes -19.8269
3219
root 0.20157 18.7647 1.67265 4.26848 14.3849 -10.0568
lowerback 7.53537 5.51316 1.20176
upperback 1.85507 7.32481 -4.36927
thorax -1.54627 3.67456 -5.80692
lowerneck -11.7147 -8.6016 -9.03389
upperneck 8.12128 -11.8813 14.7174
head 5.83884 -5.20942 5.00188
rclavicle -6.44062e-014 3.81667e-014
rhumerus 64.5832 36.8137 -64.9734
rradius 50.927
rwrist 35.0494
rhand -63.1848 366.362
rfingers 7.12502
rthumb -35.1782 -20.1519
lclavicle -6.44062e-014 3.81667e-014
lhumerus -9.22504 -11.3509 80.5853
lradius 57.9
lwrist -7.3373
lhand -34.352 25.734
lfingers 7.12502
lthumb -7.51934 55.5803
rfemur -9.36515 14.1993 18.065
rtibia 20.1951
rfoot -8.29248 -39.7651
rtoes 6.2625
lfemur -20.8337 -9.71022 1.118
ltibia 27.7081
lfoot -11.0112 7.47936
ltoes -19.4678
3220
root 0.198369 18.7629 1.66542 4.17235 14.2692 -10.0813
lowerback 7.55582 5.49164 1.02161
upperback 1.8995 7.28276 -4.3542
thorax -1.54068 3.65371 -5.68847
lowerneck -11.6591 -8.56441 -9.00667
upperneck 8.22648 -11.8535 14.7359
head 5.85823 -5.19328 5.00845
rclavicle 1.98785e-014 -2.06736e-014
rhumerus 66.1485 37.4976 -62.087
rradius 50.9417
rwrist 36.652
rhand -63.2334 366.704
rfingers 7.12502
rthumb -35.2243 -19.7997
lclavicle 1.98785e-014 -2.06736e-014
lhumerus -9.0969 -11.2485 80.5391
lradius 57.7364
lwrist -7.5683
lhand -34.3296 25.249
lfingers 7.12502
lthumb -7.49775 55.0961
rfemur -9.41757 14.1401 18.0464
rtibia 20.4105
rfoot -8.21291 -39.4423
rtoes 5.86987
lfemur -20.7462 -9.63004 1.12912
ltibia 27.7749
lfoot -11.0508 7.46967
ltoes -19.3625
3221
root 0.196194 18.7581 1.65923 4.07353 14.1618 -10.0591
lowerback 7.55552 5.45702 0.848939
upperback 1.96201 7.22484 -4.34946
thorax -1.50387 3.62598 -5.58012
lowerneck -11.6387 -8.56711 -8.96091
upperneck 8.35331 -11.8714 14.6598
head 5.888 -5.20243 4.97488
rclavicle 1.90833e-014 1.43125e-014
rhumerus 67.73 38.1094 -59.134
rradius 51.0874
rwrist 38.297
rhand -63.0303 367.928
rfingers 7.12502
rthumb -35.0317 -18.621
lclavicle 1.90833e-014 1.43125e-014
lhumerus -8.99307 -11.085 80.5038
lradius 57.5824
lwrist -7.92085
lhand -34.0874 24.8067
lfingers 7.12502
lthumb -7.26391 54.662
rfemur -9.44151 14.0225 17.9713
rtibia 20.5907
rfoot -7.91873 -39.0394
rtoes 5.67281
lfemur -20.6488 -9.57662 1.08204
ltibia 27.86
lfoot -11.0949 7.4867
ltoes -20.2761
3222
root 0.193686 18.7522 1.65241 4.0046 14.0287 -10.0068
lowerback 7.58749 5.43436 0.736252
upperback 1.96071 7.18382 -4.42383
thorax -1.53111 3.60519 -5.5965
lowerneck -11.4923 -8.58805 -8.89252
upperneck 8.46785 -11.9324 14.6422
head 5.90056 -5.23402 4.95552
rclavicle -8.34896e-014 5.08889e-014
rhumerus 69.2783 38.6086 -56.1086
rradius 51.2738
rwrist 39.5367
rhand -62.4411 369.848
rfingers 7.12502
rthumb -34.4726 -16.8294
lclavicle -8.34896e-014 5.08889e-014
lhumerus -8.93956 -11.1024 80.4025
lradius 57.4598
lwrist -8.05209
lhand -33.8765 24.5959
lfingers 7.12502
lthumb -7.06038 54.4582
rfemur -9.47903 14.0432 17.8481
rtibia 20.778
rfoot -7.72006 -38.6693
rtoes 5.16376
lfemur -20.5711 -9.50411 1.00558
ltibia 27.9541
lfoot -11.1725 7.51756
ltoes -20.81
3223
root 0.19273 18.7469 1.64719 3.92966 13.818 -10.0043
lowerback 7.57752 5.44245 0.755022
upperback 1.91175 7.19265 -4.55367
thorax -1.55595 3.60955 -5.74504
lowerneck -11.1947 -8.57581 -8.8647
upperneck 8.58943 -11.9769 14.8125
head 5.90336 -5.25346 5.01032
rclavicle 8.50798e-014 -3.65764e-014
rhumerus 70.6262 38.9897 -53.3651
rradius 51.5181
rwrist 40.6536
rhand -62.1261 370.936
rfingers 7.12502
rthumb -34.1735 -15.8093
lclavicle 8.50798e-014 -3.65764e-014
lhumerus -8.99075 -11.262 80.2188
lradius 57.4068
lwrist -8.06593
lhand -34.0326 24.8701
lfingers 7.12502
lthumb -7.21105 54.7273
rfemur -9.52869 14.2108 17.7629
rtibia 20.9828
rfoot -7.55303 -38.36
rtoes 4.46638
lfemur -20.4609 -9.42323 0.972464
ltibia 28.0445
lfoot -11.2173 7.60123
ltoes -21.0317
